<?xml version="1.0" encoding="utf-8"?>
<!-- Generator: Adobe Illustrator 26.2.1, SVG Export Plug-In . SVG Version: 6.00 Build 0)  -->
<svg version="1.1" id="Layer_1" xmlns="http://www.w3.org/2000/svg" xmlns:xlink="http://www.w3.org/1999/xlink" x="0px" y="0px"
	 viewBox="0 0 426 381.2" style="enable-background:new 0 0 426 381.2;" xml:space="preserve">
<g>
	<path d="M128.4,162.2c3-0.9,3.8-1.1,5.4-1.6c-3.1-0.7-5.4-1.2-8.3-1.8c0.1,0.9,0,0.1-0.1-0.7c-0.4,0-0.7,0-1.1,0
		c0.1,1.2-0.1,3.4,0.2,3.4c1.5,0.3,3,0,4.5,0.7c-34.3-0.2-68.1-3.9-100.9-14.7c0.5-1,0.8-1.4,1-1.9c-1-0.2-2-0.4-1-0.2
		c-2.9-2.7-4.6-4.3-6.4-5.8c0,0-1,1-1.5,1.5c1.5,1.3,2.9,2.6,4.4,3.8c-0.4,0.3-0.8,0.6-1.2,1c-2.5-3.5-6.5-6.8-7.1-10.6
		c-0.4-3,2.7-8.4,5.5-9.6c11.9-4.7,24.1-9.6,36.7-11.8c16.7-3,33.9-3.4,50.9-5.1c6.6-0.6,13.2-1.5,19.8-3.6
		c-9.7-0.4-19.4-0.4-29-1.4c-10.9-1.2-21.9-2.5-32.5-5.2C53.8,95,39.6,91.5,26.8,85.2c-9.5-4.6-17.4-13-25-20.8
		c-4.3-4.4-0.4-10,8-13.7c15.6-6.8,31.5-4.9,47.4-2c9.4,1.7,18.4,5.9,27.8,7.6c7.2,1.3,14.9,0.3,22.3,0.5
		c14.6,0.3,29.1,0.6,43.7,0.9c0.5,0,0.9,0,1.7,0c-4.4-5.4-9.1-10.3-12.7-15.9c-3.4-5.3-9.6-10.2-5.6-17.9c0.5-0.9,1.3-1.7,2.1-2.9
		c-0.7,2.2-1.2,4-2,6.8c2.2-2.3,3.5-3.7,4-4.2c-0.4,2.8-0.8,6-1.3,10.2c1.1-0.9,1.4-1.2,1.9-1.6c0,1.5,0,2.8,0,4.6
		c0.4-0.8,0.6-1.1,0.7-1.2c0.6,1.2,1.2,2.5,1.8,3.8c0.8-0.7,1.7-1.4,2.4-2c0,0.9,0,2.2,0,4.4c0.8-1.9,1.3-2.9,2.2-5.2
		c0,2.9,0,4.5,0,7.5c0.8-2.2,1.1-2.9,1.9-4.8c0,3.1,0,5,0,8c0.8-1.8,1.1-2.5,1.8-4c0.2,2.7,0.3,4.6,0.6,8.5c0.8-2.7,1-3.6,1.5-5.3
		c0.4,2.7,0.6,4.5,1,7.2c0.7-1.4,1-1.9,1.7-3.2c0,2,0,3.2,0,4.5c0.5-0.2,0.9-0.4,1.4-0.7c0.5,1.3,1,2.6,1.6,4.1
		c0.2-0.3,0.6-0.6-0.1,0.1c3.5,0.6,6.7,2.4,8.8,1.4c8-3.6,15.7-8.1,23.4-12.2c1.3-0.7,2.6-1.3,4.7-2.4c-0.5-0.1,0.1,0,0.4,0.1
		c0.3-0.7,0.6-1.2,1.1-2.1c-5,0.8-10.1,1.7-15.2,2.5c-16.9,2.8-19.9,1-26.7-14.8c-2.9-6.9-6.5-13.5-9.4-20.4c-0.7-1.7-0.6-4.3,0.2-6
		c1-2.1,3.2-3.7,6-4.5c-0.6,0.5-1.1,1-1.9,1.7c1.8,0.2,3.3,0.4,3.2,0.4c-1.7,2.2-3.7,4.7-5.7,7.1c0.3,0.3,0.7,0.6,1,0.9
		c0.4-0.2,0.8-0.4,1.4-0.7c-0.3,1.3-0.5,2.3-0.9,3.9c0.9-0.6,1.3-0.8,1.8-1.1c-0.1,1.2-0.3,2.3-0.4,3.5c0.8-0.3,1.3-0.5,1.8-0.8
		c0.2,0.8,0.4,1.6,0.7,2.9c0.6-1.2,1-2,1.7-3.3c-0.2,2.5-0.3,4.4-0.5,8.3c1.2-3,1.6-4,2.4-6.1c0,2.8,0,4.4,0,6.9
		c0.8-1.1,1-1.6,1.6-2.4c-0.1,2.3-0.2,4-0.3,6.3c0.8-1,1.2-1.5,2.2-2.8c-0.5,2.6-0.8,4.3-1.3,7.4c1.1-2.1,1.6-2.9,2.4-4.5
		c-0.4,2.7-0.6,4.4-1,7.2c1.3-1.4,1.7-1.9,2.5-2.8c-0.4,1.8-0.7,3.1-1.3,5.4c1-1.4,1.4-1.9,2.2-3c-0.4,1.9-0.6,3.1-1,5
		c0.9-1.1,1.4-1.6,2.4-2.7c-0.4,1.4-0.9,2.3-0.7,2.5c0.9,1,2.1,2.6,3.1,2.6c4.7-0.2,9.3-1,14-1.5c4.8-0.5,9.6-1,14.6-1.5
		c-5.9-6.4-3.8-15,3-17.6c0.2-1.7,0.4-3.3,0.7-5.9c0.5,0.7,0.1,0.2-0.4-0.5c0.7,0.1,1.1,0.2,1.5,0.2c-0.5-0.6-0.9-1.2-1.8-2.6
		c1.3,0.8,1.8,1.1,2.3,1.4c0-0.4,0-0.7,0-1c0.4,0.1,0.9,0.2,1.3,0.3c0.2-0.6,0.8-1.4,0.6-1.9c-0.5-1.3-1.3-2.5-1.2-2.4
		c7.5,5.8,16.1,1.2,23.6,1.1c0.1,0.6,0.7,2.5,1.2,4.5c0.7-0.2,1.3-0.3,2-0.5c-0.3,0.6-0.6,1.2-1.1,2.2c0.6-0.4,0.9-0.5,1.4-0.8
		c-0.1,1.5-0.2,2.8-0.3,3.9c1.4,0.9,2.9,1.7,4.2,2.8c4.8,4.1,5.6,12,1.9,17.1c-0.3,0.4-0.5,1.1-0.3,1.4c0.2,0.4,0.8,0.6,1.3,0.7
		c5.7,1,11.5,1.8,17.2,2.9c4.6,0.9,9,2.4,13.6,3.3c0.4,0.1,1.4-2.4,2-3.7c0.1,0.2,0.3,0.7,1,2.2c0-2.8,0-4.7,0-8.4
		c1,2.7,1.3,3.7,2.3,6.5c0.2-4.3,0.4-6.6,0.6-9.7c0.5,1.7,0.8,2.8,1.7,5.8c0.3-4.1,0.5-6.2,0.7-9.4c0.7,1.7,1.1,2.6,1.7,4.2
		c0.4-2.5,0.7-4.2,1-5.9c0.5,0.2,0.9,0.5,1.4,0.7c0-1.6,0-3.2,0-5.8c0.7,1.7,1.1,2.5,1.6,3.8c0-2.3,0-4,0-6.9c0.8,1.8,1.3,2.8,2,4.3
		c0.4-1.6,0.7-2.7,1-3.5c0.7,0,1.9,0.2,1.9,0c0.7-1.8,1.2-3.7,2.1-7c-0.8-2.1-1.8-4.8-3.1-7.4c-0.3-0.6-1.5-0.7-2.1-1.7
		c1.8,0.7,3.7,1.4,5.6,2c-0.2-0.6-0.3-1.4-0.6-2.2c-0.3-0.7-0.8-1.4-1.3-2.1c0.7-0.1,1.5-0.2,2.2-0.3c0.5,4.4,2.5,9.2,1.3,13.1
		c-1.7,5.9-5.5,11.2-8.6,16.8c-2,3.7-4,7.4-6.4,10.8c-6.1,8.8-14.6,7.4-23.2,5.3c-4.7-1.2-9.5-2.2-14.2-3.2
		c-0.7-0.2-1.5,0.2-2.3,0.3c0.6,0.4,1.2,1,1.8,1.3c4.8,2.2,9.6,4.4,14.4,6.6c0.4,0.2,1.1,0,1.8,0c0.1,0.3,0.2,0.7,0.4,1.4
		c0.7-0.4,1.2-0.6,1.9-1c0,0.8,0,1.4,0,2.4c0.7-0.6,1.2-1,1.3-1.1c1,0.3,1.7,0.8,2.3,0.6c8-2.9,18.4,0.5,24.8-8.1
		c-0.2-0.3,0,0,0.6,0.7c0.3-1.4,0.5-2.5,0.7-3.7c0.4,0.4,0.7,0.8,1.3,1.4c0-1.4,0-2.4,0-4.9c0.7,2.1,0.9,2.8,1.5,4.5
		c0.2-2.2,0.3-3.4,0.5-5.3c0.5,1.2,0.8,1.8,1.4,3.2c0-2.4,0-4,0-5.6c0.2,0,0.4,0,0.6-0.1c0.3,1.1,0.5,2.2,0.8,3.3
		c4.2-1.2,6.1-9.5,3.4-16.7c1.8,1.4,2.9,2.4,4.2,3.5c-0.1-1.2-0.1-2.4-0.2-3.8c3.2,3.7,1.5,10.4-2.5,14.6c-3.7,3.9-6.6,8.5-9.8,12.9
		c6.3-0.4,12.8-0.8,19.3-1.1c11-0.6,22.1-0.5,33.1-1.9c7.9-1,15.6-4.1,23.4-6.3c18.1-5.1,36.4-8.3,55.2-5.1c2.9,0.5,6.7,1.7,8.1,3.8
		c4.4,6.6,0.3,12.3-4.2,16.7c-20.4,19.7-46.2,28.8-73,35.4c-13.9,3.4-28.3,4.7-42.7,7.1c7.1,0.9,14.2,2.3,21.3,2.7
		c20.5,1.1,41,1.2,61.4,2.8c9.5,0.7,19.3,3.2,25.4,11.8c1.7,2.4,1.8,5.9,2.5,8.9c0.1,0.4-0.4,1-0.8,1.3c-0.8,0.5-1.7,0.7-2.5,1.1
		c0.9,0,1.7,0,5.1,0c-5.5,3.8-9.2,7.1-13.5,9.4c-20.9,10.8-43.9,12.9-66.6,16.8c-25.1,4.4-49.9,3.3-74.6-1.2
		c-14.9-2.7-27.9-8.8-36.8-24.6c-1.4,8-3.4,14-3.4,20c0.1,14,1.5,28,1.8,42c0.3,13.3-0.1,26.7-0.2,40c-0.1,14.5-0.5,29-0.3,43.4
		c0.1,14.4,1.1,28.8,0.9,43.1c-0.1,11.8-1.3,23.6-1.9,35.4c-0.3,6.7-0.1,13.5-0.6,20.2c-0.1,2-1.6,4-2.9,5.6
		c-0.7,0.9-2.2,1.1-2.5,1.2c-1.4-2-2.1-3.2-2.9-4.3c-0.4,0.3-0.9,0.6-1.3,1c0.5,0.4,1,0.8,1.5,1.2c-0.2,0.4-0.3,0.9-0.5,1.3
		c-1.4-0.5-3.4-0.6-4.1-1.6c-4.9-7.2-5.5-15-2.6-23.3c0.7-2-1.4-4.7-1.5-7.1c-0.6-10.9-1.2-21.8-1.3-32.7c-0.2-19.3,0-38.7,0.1-58
		c0.1-16.4,0.4-32.9,0.6-49.3c0.1-11.3,0.4-22.6,0.3-33.9c-0.1-11.8-0.6-23.6-1.1-35.5c0-0.4-2.3-1.2-2.4-1
		c-10.6,13.9-26.8,15.9-42.1,19.6c-8.7,2.1-17.7,3.1-26.6,4.6C131.7,162.3,131.1,162.2,128.4,162.2z"/>
</g>
</svg>
