<?xml version="1.0" encoding="utf-8"?>
<!-- Generator: Adobe Illustrator 26.2.1, SVG Export Plug-In . SVG Version: 6.00 Build 0)  -->
<svg version="1.1" id="Layer_1" xmlns="http://www.w3.org/2000/svg" xmlns:xlink="http://www.w3.org/1999/xlink" x="0px" y="0px"
	 viewBox="0 0 73.6 52.8" style="enable-background:new 0 0 73.6 52.8;" xml:space="preserve">
<g>
	<path d="M62,22.8c1.5,0.4,3.1,0.7,4.7,1.2c1.1,0.4,2.2,0.9,3.1,1.6c0.5,0.4,0.4,1-0.2,1.3c-0.7,0.3-1.4,0.5-2.1,0.7
		c-0.1,0-0.3,0.1-0.5,0c-0.9-0.4-1.7,0-2.6,0.1c-0.8,0.1-1.6,0.2-2.4,0.3c-0.3,0-0.6,0.1-0.8,0.1c-0.6,0-1.2,0-1.8,0.1
		c-0.4,0-0.9,0-1.3,0c-1.4,0.2-2.7,0.5-4.1,0.5c-0.4,0-0.8-0.1-1.2-0.1c-0.7,0-1.4,0.1-2.1,0.1c-0.8,0-1.6,0.1-2.3,0.1
		c-1.4-0.1-2.8-0.1-4.1-0.7c-0.9-0.4-1.8-1-2.5-1.6c-0.5-0.4-0.9-0.9-1.3-1.3c-0.1-0.1-0.1-0.1-0.2-0.1c0,0.1-0.1,0.1-0.1,0.2
		c-0.1,0.8-0.3,1.6-0.4,2.5c-0.1,0.3,0,0.7,0.2,1c0.3,0.4,0.2,0.4-0.2,0.5c-0.6,0.1-0.5-0.2-0.6-0.5c-0.2-1,0-2,0.2-2.9
		c0.1-0.6,0.2-1.1,0.3-1.7c0-0.4-0.2-0.7-0.3-1.1c-0.1-0.2-0.2-0.4-0.3-0.7c-0.1,0.2-0.2,0.5-0.2,0.7c-0.1,0.7-0.2,1.4-0.2,2.1
		c-0.1,0.7-0.1,1.4-0.1,2c0,1.1,0.1,2.1,0.1,3.2c0,1-0.1,2-0.1,3c0,0,0,0.1,0,0.1c0.2,1.9-0.2,3.7-0.1,5.6c0,1.1,0,2.1-0.3,3.1
		c-0.2,0.7,0,1.5-0.1,2.2c0,0.5-0.1,1.1-0.2,1.6c0,0.4,0.1,0.9,0.1,1.3c0,0.5,0,0.9-0.1,1.3c-0.3,1.1-0.7,2.3-0.5,3.5
		c0,0.1,0,0.3,0,0.4c0,0.1-0.3,0.1-0.3,0.1c-0.4-0.6-0.8,0-1.2,0c-0.1,0-0.3,0.1-0.4,0.1c0-0.1-0.1-0.3-0.1-0.4
		c0.3-1.3-0.2-2.5-0.5-3.8c-0.1-0.6-0.2-1.3-0.1-1.9c0-0.3,0.1-0.7,0-1c-0.2-0.9-0.2-1.7-0.1-2.6c0-0.3,0.1-0.6,0-0.8
		c-0.4-1-0.1-2.1,0-3.1c0.1-0.7,0.2-1.4,0.1-2.1c-0.1-1,0.1-2.1,0.1-3.2c0-0.5,0-0.9,0-1.4c0-1.1,0.1-2.1,0.2-3.2c0-0.4,0-0.8,0-1.2
		c0-0.8,0-1.6,0-2.3c0-1,0-2-0.1-3c0-0.1-0.1-0.1-0.1-0.2c0,0.1-0.1,0.1-0.1,0.2c-0.2,0.4-0.4,0.9-0.5,1.3c0,0.3,0.1,0.6,0.3,0.9
		c0.2,0.3,0.4,0.5,0,0.8c-0.1,0-0.1,0.2-0.1,0.3c-0.1,0.9-0.1,1.7-0.2,2.6c0,0.2-0.1,0.3-0.1,0.4c-0.1,0.1-0.2,0.1-0.3,0.1
		c0-0.1-0.1-0.2-0.1-0.3c-0.2-0.8,0.1-1.6,0-2.5c0-0.2-0.1-0.3-0.1-0.5c-0.2-0.3-0.3-0.3-0.6-0.1c-0.4,0.4-0.7,0.7-1.1,1.1
		c-0.8,0.7-1.7,1-2.7,1.3c-1.5,0.5-3,0.9-4.7,0.9c-0.7,0-1.4,0.2-2.1,0.2c-1,0-2,0-3,0c-1.2,0-2.3-0.2-3.5-0.2
		c-1.6-0.1-3.2,0-4.9-0.2c-1.8-0.1-3.7,0-5.5-0.5c-0.2-0.1-0.4-0.1-0.6-0.2c-0.7-0.4-0.8-1.2-0.3-1.7c0.4-0.4,1-0.8,1.5-1.1
		c1.7-0.9,3.6-1.2,5.5-1.5c2.2-0.4,4.3-0.7,6.5-1.1c0.2,0,0.3-0.1,0.4-0.1c-0.2-0.1-0.3-0.2-0.5-0.2c-2.6-0.1-5.1-0.7-7.6-1.2
		c-2.6-0.5-5-1.4-7.4-2.5c-0.2-0.1-0.4-0.1-0.6-0.2C2,18.5,1.3,18.3,0.7,18C0.2,17.8,0,17.4,0,16.9c0-1,0.7-1.9,1.7-2.4
		C2.8,14,3.9,14,5,13.9c1.8-0.1,3.7,0.2,5.5,0.4c1.9,0.2,3.8,0.3,5.6,0.6c1.1,0.2,2.2,0.2,3.3,0.2c1,0,2,0,3,0c1.7,0,3.3-0.1,5-0.1
		c1.9,0,3.8,0.1,5.7,0.5c0.6,0.1,0.7,0,0.6-0.5c-0.2-1-0.1-2,0-2.9c0-0.2,0-0.4,0-0.5c0-0.2,0-0.3-0.2-0.1c-0.3,0.2-0.8,0.2-1.1,0.5
		c-0.1,0.1-0.4,0.2-0.6-0.2c-0.2-0.4-0.6-0.8-0.8-1.2c-0.3-0.6-0.6-1.2-0.8-1.9c-0.3-0.9-0.5-1.8-0.8-2.7c0-0.1-0.1-0.2-0.1-0.3
		c0-0.2-0.1-0.5,0-0.6c0.1-0.2,0.3-0.3,0.5-0.4c0,0,0.3,0.2,0.3,0.4c0.1,0.5,0.1,0.9,0.2,1.4c0,0.2,0,0.5,0.3,0.5
		c0.1,0,0.2,0.2,0.2,0.3c0.1,0.5,0.3,1,0.4,1.5c0.1,0.3,0.2,0.6,0.3,0.9c0,0,0.1,0,0.2,0c0.1,0,0.2,0,0.2,0.1c0,0.2-0.3,0.5,0.2,0.5
		c0,0,0,0.1,0,0.1c0.1,0.4,0.1,0.4,0.4,0.1c0.3-0.2,0.5-0.5,0.8-0.7c0.2-0.2,0.5-0.3,0.8-0.4c0.1,0,0.2-0.1,0.2-0.1
		C34,9.1,34,9,33.9,9c-0.4-0.2-0.7-0.5-1.1-0.7c-0.3-0.2-0.5-0.4-0.7-0.8c-0.2-0.4-0.5-0.8-0.9-1.1C31,6,31,5.7,31.2,5.4
		c0.3-0.6,0.5-1.3,0.9-1.9c0.3-0.5,0.7-1,1-1.6c0.3-0.5,0.6-1.1,1-1.6c0.1-0.2,0.1-0.4,0.4-0.3c0.3,0.1,0.3,0.3,0.2,0.6
		c-0.1,0.4-0.1,0.8-0.6,0.9c-0.1,0-0.1,0.1-0.1,0.2c-0.1,1-1,1.7-1.3,2.6c-0.2,0.4-0.3,0.8-0.6,1.2c-0.2,0.3,0,0.4,0.2,0.5
		c0.1,0,0.2,0,0.3,0c2.6,2.4,1.6,0.9,1.5,0.2c0-0.1,0-0.7,0-0.7c0.2-0.5,0.3,0,0.4-0.2c0.1-0.2-0.2-0.4-0.3-0.7c0-0.1,0-0.3,0-0.4
		c0.1,0.1,0.2,0.1,0.3,0.2c0.3,0.3,0.7,0.4,1,0.1c1.3-0.8,3-0.7,4.1,0.3c0,0,0.1,0,0.1,0.1c0.2,0.3,0.2,0.3,0.4-0.1
		c0.1-0.1,0.2-0.3,0.3-0.4c0,0.2,0,0.4-0.1,0.6c0,0.1-0.1,0.1-0.1,0.2c-0.3,0.5,0.1,0.2-0.1,0.8c-0.2,0.7-0.3,1.8,0,1.3
		c0.1-0.2,1.8-1.2,2-1.3c0.3-0.1,0.3-0.3,0.2-0.5c-0.2-0.8-0.4-1.7-0.6-2.5c0-0.2,0-0.4,0.1-0.5c0.2-0.5,0.8-0.9,0.6-1.6
		c0-0.2,0.1-0.2,0.2-0.1c0.4,0.2,0.4,0.2,0.3,0.6c-0.1,0.4-0.3,0.9-0.4,1.3c0,0.2,0,0.4,0,0.5C43,4,43,5,43.3,6
		c0.2,0.6-0.2,1-0.6,1.4c-0.3,0.3-0.6,0.4-0.9,0.6c-0.2,0.1-0.6,0.2-0.6,0.4c-0.3,0.7-0.8,0.4-1.3,0.4c-0.1,0-0.2,0-0.3,0
		c0.1,0.1,0.2,0.1,0.3,0.2c0.5,0.2,1,0.4,1.5,0.7c0.2,0.1,0.3,0.4,0.4,0.5c0.2,0.2,0.4,0.2,0.4-0.1c0-0.4,0.3-0.6,0.4-0.9
		C43,8.5,43.5,7.8,43.9,7c0.3-0.6,0.9-1,1.3-1.5c0.2-0.2,0.4-0.4,0.6-0.6c0.1-0.1,0.2-0.1,0.3-0.1C46.2,5,46.5,5,46.1,5.3
		c-0.2,0.2-0.3,0.5-0.5,0.7c-0.2,0.2-0.4,0.5-0.6,0.7c-0.2,0.2-0.4,0.4-0.5,0.6c-0.2,0.6-0.5,1.2-0.7,1.7c-0.4,0.7-0.8,1.3-1.3,1.9
		c-0.3,0.4-0.7,0.5-1.1,0.3c-0.3-0.1-0.6-0.3-0.9-0.4c-0.1,0-0.2-0.1-0.3-0.1c0,0.1,0,0.2,0,0.3c0.1,0.5,0.3,0.9,0.4,1.4
		c0.1,0.9,0.2,1.8-0.2,2.6c-0.2,0.5-0.1,0.5,0.4,0.5c2.1-0.1,4.3-0.2,6.4-0.1c1.7,0,3.3,0.2,5,0.3c0.9,0,1.8,0,2.6,0
		c0.8,0,1.6,0.1,2.5,0.1c1.1,0,2.2-0.2,3.3-0.2c2.3,0,4.5-0.1,6.8,0c1.1,0,2.1,0.2,3.1,0.3c1.1,0.2,2.1,0.8,2.8,1.7
		c0.3,0.3,0.4,0.7,0.4,1.2c0,0.2-0.2,0.4-0.3,0.5c0,0-0.1-0.1-0.1-0.1c0-0.1,0-0.1,0-0.2c-0.1,0-0.2,0-0.2,0.1
		c-0.2,0.7-0.8,0.8-1.4,1c-1,0.3-2.1,0.5-3.1,0.7c-0.5,0.1-1.1,0.3-1.6,0.5c-1.5,0.6-3,0.9-4.5,1.2C62.3,22.7,62.1,22.8,62,22.8z"/>
</g>
</svg>
