<?xml version="1.0" encoding="utf-8"?>
<!-- Generator: Adobe Illustrator 26.2.1, SVG Export Plug-In . SVG Version: 6.00 Build 0)  -->
<svg version="1.1" id="Layer_1" xmlns="http://www.w3.org/2000/svg" xmlns:xlink="http://www.w3.org/1999/xlink" x="0px" y="0px"
	 viewBox="0 0 418.5 366.3" style="enable-background:new 0 0 418.5 366.3;" xml:space="preserve">
<g>
	<path d="M415.1,60.9c0,0,1.2,1.8,1.8,2.7c-0.4,0.5-0.9,0.8-1.2,1.4c-0.3,0.5-0.3,1.2-0.4,1.9c0.5-0.1,0.9-0.3,1.4-0.4
		c0.2-0.1,0.5-0.1,0.7-0.2c0.1,0.5,0.3,1.2,0.2,1.4c-1.9,2.9-3.5,6.4-6,8.5c-6,5.3-12.5,10-19.9,12.3c-8.6,2.7-17,6.4-25.7,8.4
		c-5.3,1.2-10.7,3.3-16.3,2.7c-0.7-0.1-1.7,0.2-2.1-0.2c-0.9-0.9-1.5-2.2-2.2-3.4c-0.7,1.2-1.3,2.6-2.2,3.4
		c-0.7,0.6-1.9,0.2-2.9,0.2c-8.9,0-17.9,0-26.8,0c-0.9,0-1.7,0-2.6,0.1c-0.1,0-0.2,0.2-0.3,0.3c0.1,0.2,0.2,0.5,0.4,0.6
		c2.9,0.4,5.9,1,8.8,1.1c6,0.1,11.8,1.4,17.6,2.7c6.1,1.3,12.3,2.2,18.3,3.7c3,0.7,6.2,0.6,9,2.4c1.3,0.8,3,0.9,4.5,1.2
		c4.3,0.8,8.5,2.2,12.5,4.3c0.5,0.3,1.1,0.1,1.7,0.2l0,0c2.1,1.2,4.1,3,6.3,3.6c3.9,1.1,6.5,4.7,9.7,6.9c0.7,0.5,1.5,1.1,2,1.9
		c2.4,4,4.1,8.6,3.9,13.4c-0.1,2.3-1.9,5.2-3.6,6.6c-3.8,3.2-7.6,6.6-12.2,8c-1.5,0.5-3,0.7-4.5,1c-1.2,0.3-2.6,0.3-3.6,1.1
		c-0.9,0.8-1.6,0.8-2.6,0.7c-1.2-0.2-2.5,0.2-3.8,0.3c-2.3,0.2-4.5,0.6-7-0.1c-2.7-0.8-5.7-0.3-8.5-0.3c-4,0-7.9,0-11.9-1
		c-4.6-1.1-9.2-1.4-13.8-2.2c-1.7-0.3-3.3-0.8-5-1.3c-7.5-2.3-15.1-4.1-22.5-7c-5.9-2.3-12.1-3.6-17.5-7.6c-1.8-1.3-3.8-2.4-5.8-2.9
		c-4.6-1.2-7.5-5.3-10.9-8.4c-5-4.5-9.6-9.5-14.5-14.2c-1.1-1.1-2.3-1.9-3.6-2.8c-3-2-6-4-9-5.9c-0.9-0.6-1.8-1-2.7-1.4
		c-7-2.6-14-5.2-21-7.8c-0.1-0.1-0.3-0.2-0.4-0.2c-4.6-1.3-5-0.9-5.4,4.7c-0.2,2.5-0.6,5-0.8,7.6c-0.4,3.5,0.2,7.1-0.1,10.5
		c-0.8,10.1-0.1,20.2-0.9,30.2c-0.5,6.2,0.9,12.1,0.2,18.2c-0.3,2.2-0.5,4.4-0.7,6.5c-0.1,0.8-0.2,1.7-0.1,2.5
		c1,7.9-0.1,15.7-0.1,23.6c0.1,11.3,0.1,22.6,0,33.8c0,4.4-0.8,8.9-0.4,13.2c0.2,2.6,0.2,5.1,0.4,7.7c0.2,2.7,0.4,5.5,0,8.2
		c-1.8,12.6-0.1,25.2-1.1,37.8c-0.4,5.2,0.6,10.6,0.2,15.8c-0.8,10.9-0.6,21.8-0.8,32.7c0,3-1.5,5.9-0.1,9c0.2,0.4-0.4,1.6-0.9,2
		c-1.8,1.3,1.2,4.1-0.8,4.6c-0.9,0.3-2.2-2-3.5-2.5c-1.9-0.8-3.6,0.1-4.8,2.3c-0.2,0.4-0.5,0.6-0.8,1c-0.1-0.3-0.2-0.6-0.2-1
		c-0.4-3,0.8-6.2-1.3-8.8c-0.1-0.1,0-0.7,0.1-0.9c1.9-2.3,1-5.2,1.1-7.9c0.1-4.4-0.2-8.9,0.1-13.4c0.8-10.7,0.2-21.5,1-32.2
		c0.9-11.3,0.4-22.5,0.7-33.8c0.2-8.1,0.2-16.2,1.6-24.2c0.2-1.3,0.1-2.7,0.1-4.1c0-13.2-0.4-26.4,0.1-39.6
		c0.8-21.5,0.7-43.1,0.8-64.6c0-4.7,0.6-9.5,0.7-14.2c0.1-2.5-0.5-5-0.6-7.6c-0.1-1.9,0-3.7,0.1-5.6c0.2-3.9,0.4-7.8,0.6-11.7
		c0.1-1.9-0.9-2.5-2.2-2.2c-1.9,0.4-3.9,1-5.8,1.7c-6.2,2.3-12.2,5.4-18.1,8.6c-8.6,4.6-15.8,11.1-22.9,18.2c-2.9,2.9-6,5.7-9.2,8
		c-2.5,1.8-4.6,4.3-7.2,6.2c-6.2,4.6-13,6.5-19.8,8.8c-1.5,0.5-3.2,1-4.2,2.2c-1,1.3-3.1-0.5-3.4,2.1c0,0.2-0.7,0.6-0.9,0.5
		c-1.3-1-2.4-0.2-3.6,0.1c-6.5,1.8-12.7,4.3-19,6.8c-2.5,1-5.3,1.1-7.9,1.6c-1.5,0.3-3,0.8-4.6,1c-1.6,0.3-3.2,0.4-4.8,0.6
		c-3.2,0.5-6.4,1-9.6,1.4c-1.4,0.2-3,0.3-4.2-0.3c-3.4-1.6-6.8-1.4-10.3-1.7c-2.4-0.2-4.8-0.5-7.1-1.1c-4.8-1.2-9.7-2.4-14.4-4.1
		c-5-1.8-10.6-10.9-9.8-16.4c0.6-4.1,1.9-7.6,4.6-10.5c4.7-5.1,9.9-9,15.5-12.4c5-3,10.2-4.6,15.6-5.8c1.9-0.4,3.9-0.8,5.9-1
		c7.4-1.1,14.8-2.6,22.3-3.2c7.6-0.6,15.1-2,22.7-3c0.4-0.1,0.7-0.3,1.1-0.5c-0.4-0.2-0.7-0.4-1.1-0.6c-1.2-0.6-2.3-1.3-3.7-0.4
		c-0.2,0.1-0.8-0.7-1.2-1.1 M94.5,99.3c0,0,0.6,0.7,0.9,1c-0.4,0.1-0.8,0.3-1.2,0.3c-4.1,0-8.3-0.2-12.4,0.1
		c-7,0.4-13.8-1.3-20.6-2.8c-1.8-0.4-3.8,0.1-5.5-0.5c-9.8-3.1-19.9-5.4-29.4-9.8c-3.1-1.4-6.2-2.8-9.1-5.1c-2.4-2-5.3-3.1-8.1-4.3
		c-1.5-0.7-1.4-1.9-1.4-3.2c0.4-0.1,0.8-0.2,1.1-0.3c-0.1-0.2-0.2-0.4-0.3-0.5C8.3,74.4,8,74.7,7.8,75c-0.5-0.2-1.6,0.3-1.1-1.2
		C7,73,8.3,72,6.2,72.3c-2.6,0.4-3.7-0.4-4.5-3.1c-0.6-2.2-1.2-4.5-1.6-6.8c-0.6-3,0.7-5.5,2-7.6c3-4.8,6.4-9,11.5-10.7
		c1.1-0.4,2.1-1.2,3.1-1.7c1.1-0.6,2.1-0.9,3.6-0.7c2.3,0.4,4.8,0.1,7-0.7c3.4-1.3,6.6-0.8,10-0.4c4.6,0.4,9.3,0.8,13.9,1.7
		c7.5,1.3,15,3,22.5,4.6c0.6,0.1,1.1,0.5,1.6,0.4c6-0.5,11.7,1.7,17.6,2.6c2.2,0.4,4.4,1.1,6.6,1.6c4.6,1.1,9.3,1.5,13.9,3
		c5.2,1.7,10.4,3.1,15.6,4.5c2.8,0.8,5.6,1.7,8.7,0.8c1.3-0.4,2.8,0.1,4.2,0.3c0.6,0.1,1.1,0.5,1.6,0.6c4.4,0.4,8.7,0.7,13.1,1.1
		c3.2,0.3,6.5,0.7,9.7,1c3.2,0.3,6.5-0.2,9.7,0.9c2,0.7,4.2,0.2,6.4,0.2l0,0c0.5,0.1,1,0.3,1.5,0.4c-0.2-0.5-0.4-0.9-0.6-1.4l0,0
		c-1.8-4-1.7-8.5-2.2-12.7c-0.2-1.6,0.7-3.5,1.3-5.1c0.2-0.5,0.8-0.8,1.3-1.1c0,0.6,0.1,1.3-0.1,1.8c-1.2,2.2-0.9,3.9,0.7,5.7
		c1.7,1.8,0.8,5.3,2.9,6.9c-0.2,3.6,2.4,5.1,4,7.3c0.8,1.1,2.5,1.3,3.8,1.8c1.1,0.5,1.1-0.5,1.1-1.3c0-0.7,0-1.4,0-2l0,0
		c0.7-0.2,2.1-0.2,1.2-1.6c-0.9-1.3-0.4-1.4,0.3-2c0.3-0.2,0.4-0.7,0.6-1.1c-0.2-0.1-0.6-0.3-0.7-0.2c-2.2,1.7-3.9,0.1-5.6-1.3l0,0
		c-1.7-4.7-3.5-9.3-5-14c-0.9-3-1.3-6.2-1.9-9.3c-0.2-1.1-0.3-2.9,0.2-3.5c3.8-4,1-8.9,1.4-13.4c0.2-1.9,0-3.9,0.5-5.9
		c0.4-1.4,0.4-3,0.5-4.5c0.2-3.4,3-6.9,5.8-6.8c1.2,0,0.2,1.2,0.2,1.9l0,0c-0.8,0.5-1.5,0.9-2.2,1.4c-1,0.8-1.4,1.6-0.3,2.8
		c0.5,0.6,0.8,1.8,0.7,2.7c-0.5,4,0.4,8,0.2,12c-0.2,3.9,0,7.8,0.1,11.8c0,0.4,0.5,0.8,0.7,1.1c0.1,0.1,0.1,0.3,0.2,0.4
		c0.1,0.1,0.2,0.1,0.3,0.1c-0.1-0.2-0.3-0.3-0.4-0.5c-0.1-2,0.8-1.6,1.7-1c0,0,0,0,0,0c0.5,0.2,1,0.8,1.3,0.7
		c1.6-0.6,3.1-1.5,4.7-2.2c0.6-0.3,1.3-0.6,1.9-0.9c-0.6-0.2-1.2-0.4-1.8-0.7c-0.5-0.3-1-0.6-1.5-1c-4.1-3.8-4.3-12.4-0.7-16.7
		c1.4-1.7,2.9-1.8,4.6-1.8c1.9,0,0.3-1,0.4-1.5c0.3-1.7-1.9-3.3-0.2-5c0.9,1.1,1.8,2.2,2.7,3.4c0.5,0.6,0.8,1.4,1.3,2
		c0.1,0.2,0.8,0.2,0.8,0.1c0.7-2.3,2.1-3.9,4.1-3.5c2.5,0.5,5,1.4,6.2,4.6c-0.2,0.3-0.5,0.7-0.7,1c0.1,0.1,0.3,0.2,0.4,0.3
		c0.1-0.5,0.2-0.9,0.2-1.4c0.9-0.7,1.7-1.4,2.6-2.1c0,0,0,0,0,0c-0.1,0.5,0,1.1-0.2,1.5c-0.9,2-0.4,2.3,1.2,1.7
		c0.8-0.3,1.7-0.1,2.5-0.1c5.3-0.1,6.4,0.9,7.9,6.9c1.1,4.2-0.3,8.3-3.7,10.9c-0.7,0.5-1.6,0.5-2.4,0.8c-1.2,0.3-2.4,0.7-3.7,1
		c-0.3-0.3-0.6-0.6-0.8-0.8c-0.1,0.2-0.2,0.4-0.3,0.5c0.4,0.1,0.8,0.2,1.1,0.3c1.8,0.7,3.7,1.4,5.5,2c0.8,0.3,1.7,0.1,2.5,0.3
		c1.5,0.3,3.1,1.4,4.3,1c0.7-0.3,0.8-3,1-4.7c0.2-1.3,0.3-2.7,0.3-4.1c-0.1-3.2-0.5-6.4-0.5-9.6c0.1-3.2,0.6-6.4,0.9-9.6
		c0-0.6-0.2-1.3-0.5-1.8c-0.3-0.5-0.9-0.8-1.3-1.3c-0.5-0.9-1.5-2.5-1.3-2.7c1-1.1,1.7,0,2.5,0.7c2.7,2.1,4.1,4.8,3.8,9
		c-0.3,4.4-0.1,8.8,0,13.2c0.1,3.2-0.7,6.5,1.5,9.3c0.2,0.2,0.2,0.7,0.2,1c-1,6.1,0.1,12.6-3.2,18.2c-1.2,2-1.9,4.5-2.8,6.8
		c-1.5,1.2-3.1,3.3-4.6,3.2c-1.6-0.2-3.2-2.4-4.7-3.7c-0.1-0.1-0.2-0.2-0.3-0.3c-0.8-1.1-1.5-0.8-1.7,0.5c-0.2,1.1-0.6,2.4-0.4,3.4
		c0.4,1.8,1.1,3.5,2,5c0.4,0.7,1.4,1,2.2,1.1c1.1,0.1,2.2-0.2,3.3-0.4c4.3-0.8,5.7-3.7,4.3-8.8c2.3-2,4.5-4.2,4.7-8
		c0-0.3,0.4-0.7,0.5-0.7c0.4,0,0.9,0.2,1,0.5c1.2,2.3,1.2,4.7,0.5,7.1l0,0c-0.4,0.3-0.8,0.6-1.2,0.8c1.9,1.2,1.2,2.5,0.1,4
		c-0.4,0.5-0.5,1.2-0.8,1.8c-0.5,1.1,0,1.7,0.8,1.5c3.2-0.6,6.4-1.2,9.6-1.9c3.7-0.7,7.5-1.5,11.3-2.2c2.2-0.4,4.5-0.7,6.7-1
		c2.5-0.4,5-0.9,7.6-1c3.3-0.2,6.6-0.1,9.8,0c4.1,0.1,8.1-0.5,12.2-1.7c4.4-1.2,8.9-1.7,13.4-2.5c1-0.2,1.9-0.5,2.9-0.7
		c2.8-0.7,5.6-1.4,8.5-2c2.8-0.6,5.6-1,8.4-1.4c0.4-0.1,0.9,0.1,1.3-0.1c5.8-3.1,12.2-2.1,18.1-4.7c3-1.3,6.4-1,9.6-1.4
		c7.3-0.9,14.5-2.3,21.8-2.2c2.4,0,4.7-0.4,6.9,0.9c0.5,0.3,1.1,0.3,1.7,0.2c4.5-1.1,8.6,0.8,12.7,2.2c0.2,0.1,0.4,0.5,0.6,0.8
		c-0.3,0.1-0.5,0.2-0.8,0.3c-1.3,0.7-1,1.3,0,2c0.2,0.2,0.5,0.5,0.7,0.5c3.8-0.7,4.2,5.6,4.2,5.6s-0.3,0.1-0.4,0.2
		c-0.1,0.1-0.1,0.2-0.1,0.3c0.1-0.2,0.4-0.5,0.4-0.5s2.6-2.6,0.9-5.7c-0.2-0.3-0.1-0.8-0.2-1.2c0.4,0,1-0.3,1.2-0.1
		c2.2,2.5,5.1,4.1,6.2,7.9c0.6,2.2,1.7,4.3,2.1,6.6c0.3,1.9-0.9,0.9-1.6,0.7"/>
	<path d="M203.4,120.9c0-0.1-0.1-0.1-0.1-0.2c0,0,0-0.1,0.1-0.1C203.4,120.6,203.4,120.7,203.4,120.9
		C203.4,120.8,203.4,120.8,203.4,120.9z"/>
	<path d="M204.3,228.1c-0.1,0-0.1-0.1-0.2-0.1c0,0,0.1-0.1,0.1-0.1C204.3,227.9,204.3,228,204.3,228.1
		C204.3,228,204.3,228.1,204.3,228.1z"/>
	<path d="M198.7,136.5c0,0.1-0.1,0.1-0.1,0.2c0,0,0-0.1,0-0.1C198.6,136.5,198.7,136.5,198.7,136.5
		C198.7,136.5,198.7,136.5,198.7,136.5z"/>
	<path d="M255.3,153.8c0-0.1,0.1-0.1,0.1-0.2c0,0,0,0.1,0,0.1C255.4,153.8,255.3,153.8,255.3,153.8L255.3,153.8z"/>
	<path d="M199.4,129.2c0-0.1,0.1-0.1,0.1-0.2c0,0,0,0.1,0,0.1C199.5,129.2,199.5,129.2,199.4,129.2L199.4,129.2z"/>
	<path d="M213.3,121.6c0,0.1-0.1,0.1-0.1,0.2c0,0,0-0.1,0-0.1C213.3,121.7,213.3,121.7,213.3,121.6
		C213.3,121.6,213.3,121.6,213.3,121.6z"/>
	<path d="M207.3,121.9c0-0.1,0.1-0.1,0.1-0.2c0,0,0,0.1,0,0.1C207.4,121.9,207.3,121.9,207.3,121.9
		C207.3,121.9,207.3,121.9,207.3,121.9z"/>
	<path d="M213.3,121.6c0-0.1,0.1-0.1,0.1-0.2c0,0,0,0.1,0,0.1C213.4,121.6,213.4,121.6,213.3,121.6
		C213.3,121.6,213.3,121.6,213.3,121.6z"/>
	<path d="M199.4,120.4c0,0.1,0.1,0.1,0.1,0.2c0,0-0.1,0-0.1,0C199.5,120.5,199.5,120.5,199.4,120.4
		C199.4,120.4,199.4,120.4,199.4,120.4z"/>
	<path d="M199.2,120.1c0.1,0.1,0.2,0.2,0.3,0.3c0,0,0,0,0,0C199.4,120.3,199.3,120.2,199.2,120.1
		C199.2,120.1,199.2,120.1,199.2,120.1z"/>
	<path d="M213.6,136.5c0,0.1,0.1,0.1,0.1,0.2c0,0-0.1,0-0.1,0C213.6,136.6,213.6,136.5,213.6,136.5
		C213.6,136.5,213.6,136.5,213.6,136.5z"/>
	<path d="M200,138.3c0-0.1-0.1-0.1-0.1-0.2c0,0,0.1,0,0.1,0C199.9,138.2,199.9,138.3,200,138.3L200,138.3z"/>
	<path d="M195.9,138.3c0.1-0.1,0.2-0.2,0.3-0.3l0,0C196.1,138.1,196,138.2,195.9,138.3C195.9,138.3,195.9,138.3,195.9,138.3z"/>
	<path d="M201,131.6c0,0.1,0,0.2,0,0.3C200.7,131.8,200.8,131.7,201,131.6z"/>
	<path d="M223.2,156.8c0-0.1-0.1-0.1-0.1-0.2c0,0,0.1,0,0.1,0C223.2,156.7,223.2,156.8,223.2,156.8L223.2,156.8z"/>
	<path d="M223.2,156.8c0.2,0.1,0.2,0.2,0,0.3l0,0C223.2,157,223.2,156.9,223.2,156.8L223.2,156.8z"/>
	<path d="M243.2,155.6c-0.1,0-0.2,0-0.3,0C243,155.4,243.1,155.4,243.2,155.6z"/>
	<path d="M224,153.8c0-0.1,0.1-0.1,0.1-0.2c0,0,0,0.1,0,0.1C224,153.8,224,153.8,224,153.8C224,153.8,224,153.8,224,153.8z"/>
	<path d="M165.3,154.7c0,0.1-0.1,0.1-0.1,0.2c0,0,0-0.1,0-0.1C165.3,154.7,165.3,154.7,165.3,154.7L165.3,154.7z"/>
	<path d="M182.3,157.4c0-0.1,0.1-0.1,0.1-0.2c0,0,0,0.1,0,0.1C182.3,157.4,182.3,157.4,182.3,157.4L182.3,157.4z"/>
	<path d="M248.7,162.9c0,0.1-0.1,0.1-0.1,0.2c0,0,0-0.1,0-0.1C248.6,162.9,248.7,162.9,248.7,162.9L248.7,162.9z"/>
	<path d="M238.1,157.4c0,0.1-0.1,0.1-0.1,0.2c0,0,0-0.1,0-0.1C238,157.5,238.1,157.5,238.1,157.4L238.1,157.4z"/>
	<path d="M157.3,156.2c0,0.1,0,0.2,0,0.3C157,156.4,157,156.3,157.3,156.2z"/>
	<path d="M176.2,158c0,0.1-0.1,0.1-0.1,0.2c0,0,0-0.1,0-0.1C176.1,158.1,176.2,158.1,176.2,158C176.2,158,176.2,158,176.2,158z"/>
	<path d="M161.3,156.8c0,0.1-0.1,0.1-0.1,0.2c0,0,0-0.1,0-0.1C161.2,156.9,161.3,156.9,161.3,156.8L161.3,156.8z"/>
	<path d="M170.1,161.4c0-0.1-0.1-0.1-0.1-0.2c0,0,0.1,0,0.1,0C170.1,161.3,170.1,161.3,170.1,161.4L170.1,161.4z"/>
	<path d="M242.1,162.6c0-0.1,0-0.2,0-0.3C242.4,162.4,242.4,162.5,242.1,162.6z"/>
	<path d="M253,159c0,0.1,0.1,0.1,0.1,0.2c0,0-0.1,0-0.1,0C253,159.1,253,159,253,159C253,159,253,159,253,159z"/>
	<path d="M233.8,156.5c0-0.1,0.1-0.1,0.1-0.2c0,0,0,0.1,0,0.1C233.9,156.5,233.8,156.5,233.8,156.5
		C233.8,156.5,233.8,156.5,233.8,156.5z"/>
	<path d="M250,155.6c0,0.1-0.1,0.1-0.1,0.2c0,0,0-0.1,0-0.1C249.9,155.6,249.9,155.6,250,155.6L250,155.6z"/>
	<path d="M162.1,162.9c0-0.1,0-0.2,0-0.3c0.1,0.1,0.2,0.1,0.3,0.2C162.3,162.8,162.2,162.9,162.1,162.9z"/>
	<path d="M167.4,156.8c0-0.1,0-0.2,0-0.3c0.1,0,0.2,0,0.3,0C167.5,156.6,167.4,156.7,167.4,156.8z"/>
</g>
</svg>
